# xmcd
#
# Track frame offsets:
#	150
#	12494
#	24841
#	41572
#	60955
#
# Disc length: 980 seconds
#
# Revision: 0
# Processed by: cddbd v1.5.1PL0 Copyright (c) Steve Scherf et al.
# Submitted via: EasyCDDAExtractor 8.2.0.1
#
DISCID=2f03d205
DTITLE=D.K. Davis and the Sharks - Rag Top Down
DYEAR=1900
DGENRE=Beach Music
TTITLE0=Rag Top Down w/intro by Dick Biondi
TTITLE1=Rag Top Down
TTITLE2=Don't 'Cha Know
TTITLE3=My Secret Love
TTITLE4=As One
EXTD=
EXTT0=
EXTT1=
EXTT2=
EXTT3=
EXTT4=
PLAYORDER=
